# xmcd
#
# Track frame offsets: 
#        150
#        14598
#        27782
#        42487
#        55136
#        69196
#        81416
#        96272
#        108467
#        125660
#        140391
#        154385
#        167636
#        181959
#        194217
#        209782
#        222074
#        239125
#        252024
#        264244
#        279194
#        292413
#        306493
#        320168
#        332491
#
# Disc length: 4616 seconds
#
# Revision: 0
# Processed by: cddbd v1.5.2PL0 Copyright (c) Steve Scherf et al.
# Submitted via: ExactAudioCopy v1.0b2
#
DISCID=8d120619
DTITLE=Essential East Coast Blues - Essential East Coast Blues
DYEAR=2012
DGENRE=Blues
TTITLE0=Barbecue Bob - Barbecue Blues
TTITLE1=Buddy Moss - Midnight Rambler
TTITLE2=Peg Leg Howell - New Prison Blues
TTITLE3=Curley Weaver - Decatur Street 81
TTITLE4=Reverend Gary Davis - Lord, Stand By Me
TTITLE5=Blind Boy Fuller - Good Feeling Blues
TTITLE6=Luke Jordan - Cocaine Blues
TTITLE7=Sonny Terry - Worried Man Blues
TTITLE8=Josh White - Dupree
TTITLE9=William Moore - One Way Gal
TTITLE10=Blind Boy Fuller - Worn Out Engine Blues
TTITLE11=Peg Leg Howell - Fairy Blues
TTITLE12=Blind Willie McTell - Writin' Paper Blues
TTITLE13=Sonny Terry and Blind Boy Fuller - I Want Some Of Your Pie
TTITLE14=Barbecue Bob - We Sure Got Hard Times
TTITLE15=Sonny Terry - Runaway Woman
TTITLE16=Pink Anderson - Thousand Woman Blues
TTITLE17=Floyd Council - Runaway Man Blues
TTITLE18=Buddy Moss - Dough Rollin Papa
TTITLE19=Curley Weaver - Oh Lawdy Mama
TTITLE20=Brownie McGhee - Back Home Blues
TTITLE21=Reverend Gary Davis - You Can Go Home
TTITLE22=William Moore - Old Country Rock
TTITLE23=Josh White - Defence Factory Blues
TTITLE24=Bumble Bee Slim - B and O Blues
EXTD=
EXTT0=
EXTT1=
EXTT2=
EXTT3=
EXTT4=
EXTT5=
EXTT6=
EXTT7=
EXTT8=
EXTT9=
EXTT10=
EXTT11=
EXTT12=
EXTT13=
EXTT14=
EXTT15=
EXTT16=
EXTT17=
EXTT18=
EXTT19=
EXTT20=
EXTT21=
EXTT22=
EXTT23=
EXTT24=
PLAYORDER=
